{"asset":{"generator":"3D Builder","version":"2.0"},"scene":0,"scenes":[{"nodes":[0]}],"nodes":[{"mesh":0,"matrix":[39.370079040527344,0,0,0,0,-4.6932791519793682E-6,-39.370075225830078,0,0,39.370075225830078,-4.6932791519793682E-6,0,0.35553798079490662,-13.473872184753418,-41.908100128173828,1]}],"meshes":[{"primitives":[{"attributes":{"POSITION":0},"mode":4,"indices":1,"material":0}]}],"materials":[{"name":"Metallic","pbrMetallicRoughness":{"baseColorFactor":[0,0,0,1],"metallicFactor":1,"roughnessFactor":0.49000000953674316},"alphaMode":"OPAQUE"}],"accessors":[{"bufferView":0,"byteOffset":0,"count":31330,"componentType":5126,"type":"VEC3","min":[-2.4696493148803711,-3.0388965606689453,-2.9245269298553467],"max":[2.4515879154205322,0.90996468067169189,3.608999490737915]},{"bufferView":1,"byteOffset":0,"count":188220,"componentType":5125,"type":"SCALAR"}],"bufferViews":[{"buffer":0,"byteOffset":0,"byteLength":375960,"byteStride":12,"target":34962},{"buffer":0,"byteOffset":375960,"byteLength":752880,"target":34963}],"buffers":[{"byteLength":1128840,"uri":"head3d.bin"}]}