{
  "asset": {
    "version": "2.0",
    "generator": "THREE.GLTFExporter"
  },
  "scenes": [
    {
      "nodes": [
        1
      ],
      "name": "Scene"
    }
  ],
  "scene": 0,
  "nodes": [
    {
      "matrix": [
        39.370079040527344,
        0,
        0,
        0,
        0,
        -0.000004693279160553429,
        -39.37007522583008,
        0,
        0,
        39.37007522583008,
        -0.000004693279160553429,
        0,
        0.3924473524093628,
        115.20881652832031,
        -41.59225845336914,
        1
      ],
      "name": "mesh_0",
      "mesh": 0
    },
    {
      "name": "head3d.glb",
      "children": [
        0
      ]
    }
  ],
  "bufferViews": [
    {
      "buffer": 0,
      "byteOffset": 0,
      "byteLength": 375960,
      "target": 34962,
      "byteStride": 12
    },
    {
      "buffer": 0,
      "byteOffset": 375960,
      "byteLength": 375960,
      "target": 34962,
      "byteStride": 12
    },
    {
      "buffer": 0,
      "byteOffset": 751920,
      "byteLength": 752880,
      "target": 34963
    }
  ],
  "buffers": [
    {
      "byteLength": 1504800,
      "uri": "data:application/octet-stream;base64,"
    }
  ],
  "accessors": [
    {
      "bufferView": 0,
      "componentType": 5126,
      "count": 31330,
      "max": [
        2.4515879154205322,
        0.9099646806716919,
        3.608999490737915
      ],
      "min": [
        -2.469649314880371,
        -3.0388965606689453,
        -2.9245269298553467
      ],
      "type": "VEC3"
    },
    {
      "bufferView": 1,
      "componentType": 5126,
      "count": 31330,
      "max": [
        0.9998897910118103,
        0.9988690614700317,
        0.9999901652336121
      ],
      "min": [
        -0.9999721050262451,
        -0.9999865293502808,
        -0.9994169473648071
      ],
      "type": "VEC3"
    },
    {
      "bufferView": 2,
      "componentType": 5125,
      "count": 188220,
      "max": [
        31329
      ],
      "min": [
        0
      ],
      "type": "SCALAR"
    }
  ],
  "materials": [
    {
      "pbrMetallicRoughness": {
        "baseColorFactor": [
          0.39215686274509803,
          0.39215686274509803,
          0.39215686274509803,
          1
        ],
        "metallicFactor": 0,
        "roughnessFactor": 0.9
      },
      "extensions": {
        "KHR_materials_unlit": {}
      }
    }
  ],
  "meshes": [
    {
      "primitives": [
        {
          "mode": 4,
          "attributes": {
            "POSITION": 0,
            "NORMAL": 1
          },
          "indices": 2,
          "material": 0
        }
      ]
    }
  ],
  "extensionsUsed": [
    "KHR_materials_unlit"
  ]
}