<svg width="160" height="20" viewBox="0 0 160 20" fill="none" xmlns="http://www.w3.org/2000/svg">
<path d="M63.2271 3.66576H62.361C57.9971 3.66576 54.7658 6.33257 54.7325 11.8329C54.6658 17.2999 57.9971 20 62.461 20H63.2605C67.5245 20 70.7225 17.3332 70.7891 11.8329C70.8557 6.33257 67.5578 3.66576 63.2271 3.66576ZM62.894 14.9997H62.6608C61.295 14.9997 60.4289 13.8663 60.4289 11.8329C60.4289 9.79944 61.295 8.66604 62.6608 8.66604H62.894C64.2265 8.66604 65.126 9.79944 65.126 11.8329C65.126 13.8663 64.2265 14.9997 62.894 14.9997Z" fill="white"/>
<path d="M47.3038 9.33266H43.3063V3.99902H37.31V19.6666H43.3063V13.9996H47.3038V19.6666H53.3V3.99902H47.3038V9.33266Z" fill="white"/>
<path d="M28.9819 6.49916L25.2842 9.99936H24.6513V3.99902H18.655V19.6666H24.6513V15.9997L28.6155 12.6662H28.9819V19.6666H35.3113V3.99902H28.9819V6.49916Z" fill="white"/>
<path d="M17.6223 0H11.2263L7.7285 7.00039H6.32938V0H0V19.6678H6.32938V12.0007H7.62857L11.3596 19.6678H18.2886L13.1584 9.20052L17.6223 0Z" fill="white"/>
<path d="M153.271 19.6666H160L155.17 11.2661L159.201 3.99902H152.938L149.873 9.33266H148.907V3.99902H142.578V19.6666H148.907V13.6662H149.873L153.271 19.6666Z" fill="white"/>
<path d="M71.955 0V19.6678H78.2844V5.00028H82.615V19.6678H88.9444V0H71.955Z" fill="white"/>
<path d="M133.25 8.66604H133.483C134.649 8.66604 135.482 9.33274 135.649 10.6662H141.378C141.145 5.99922 137.947 3.66576 133.783 3.66576H132.917C128.553 3.66576 125.322 6.33257 125.288 11.8329C125.222 17.2999 128.553 20 133.017 20H133.816C137.98 20 141.145 17.6665 141.345 12.6663H135.615C135.515 13.9997 134.649 14.9997 133.417 14.9997H133.25C131.884 14.9997 131.018 13.8663 131.018 11.8329C131.018 9.79944 131.884 8.66604 133.25 8.66604Z" fill="white"/>
<path d="M98.7049 3.66576H97.8388C93.4416 3.66576 90.2436 6.33257 90.2102 11.8329C90.1436 17.2999 93.4749 20 97.9388 20H98.7383C103.002 20 106.2 17.3332 106.267 11.8329C106.367 6.33257 103.036 3.66576 98.7049 3.66576ZM98.3718 14.9997H98.1386C96.7728 14.9997 95.9067 13.8663 95.9067 11.8329C95.9067 9.79944 96.7728 8.66604 98.1386 8.66604H98.3718C99.7043 8.66604 100.604 9.79944 100.604 11.8329C100.604 13.8663 99.7043 14.9997 98.3718 14.9997Z" fill="white"/>
<path d="M117.926 6.49916L114.162 9.99936H113.596V3.99902H107.599V19.6666H113.596V15.9997L117.46 12.6662H117.926V19.6666H123.923V3.99902H117.926V6.49916Z" fill="white"/>
</svg>
