<svg width="160" height="20" viewBox="0 0 160 20" fill="none" xmlns="http://www.w3.org/2000/svg">
<path d="M63.2272 3.66663H62.3611C57.9971 3.66663 54.7658 6.33329 54.7325 11.8333C54.6659 17.3 57.9971 20 62.461 20H63.2605C67.5245 20 70.7225 17.3333 70.7891 11.8333C70.8557 6.33329 67.5578 3.66663 63.2272 3.66663ZM62.8941 15H62.6609C61.2951 15 60.4289 13.8666 60.4289 11.8333C60.4289 9.79996 61.2951 8.66663 62.6609 8.66663H62.8941C64.2266 8.66663 65.126 9.79996 65.126 11.8333C65.126 13.8666 64.2266 15 62.8941 15Z" fill="#FF6600"/>
<path d="M47.3038 9.33333H43.3063V4H37.3101V19.6667H43.3063V14H47.3038V19.6667H53.3001V4H47.3038V9.33333Z" fill="#FF6600"/>
<path d="M28.9819 6.5L25.2842 10H24.6513V4H18.655V19.6667H24.6513V16L28.6155 12.6667H28.9819V19.6667H35.3113V4H28.9819V6.5Z" fill="#FF6600"/>
<path d="M17.6223 0H11.2263L7.7285 7H6.32938V0H0V19.6667H6.32938V12H7.62857L11.3596 19.6667H18.2886L13.1584 9.2L17.6223 0Z" fill="#FF6600"/>
<path d="M153.271 19.6667H160L155.17 11.2667L159.2 4H152.938L149.873 9.33333H148.907V4H142.578V19.6667H148.907V13.6667H149.873L153.271 19.6667Z" fill="#FF6600"/>
<path d="M71.9551 0V19.6667H78.2845V5H82.6151V19.6667H88.9445V0H71.9551Z" fill="#FF6600"/>
<path d="M133.25 8.66663H133.483C134.649 8.66663 135.482 9.33329 135.649 10.6666H141.378C141.145 5.99996 137.947 3.66663 133.783 3.66663H132.917C128.553 3.66663 125.322 6.33329 125.288 11.8333C125.222 17.3 128.553 20 133.017 20H133.816C137.98 20 141.145 17.6666 141.345 12.6666H135.615C135.515 14 134.649 15 133.417 15H133.25C131.884 15 131.018 13.8666 131.018 11.8333C131.018 9.79996 131.884 8.66663 133.25 8.66663Z" fill="#FF6600"/>
<path d="M98.705 3.66663H97.8388C93.4416 3.66663 90.2436 6.33329 90.2103 11.8333C90.1436 17.3 93.4749 20 97.9388 20H98.7383C103.002 20 106.2 17.3333 106.267 11.8333C106.367 6.33329 103.036 3.66663 98.705 3.66663ZM98.3718 15H98.1387C96.7728 15 95.9067 13.8666 95.9067 11.8333C95.9067 9.79996 96.7728 8.66663 98.1387 8.66663H98.3718C99.7043 8.66663 100.604 9.79996 100.604 11.8333C100.604 13.8666 99.7043 15 98.3718 15Z" fill="#FF6600"/>
<path d="M117.926 6.5L114.162 10H113.596V4H107.599V19.6667H113.596V16L117.46 12.6667H117.926V19.6667H123.923V4H117.926V6.5Z" fill="#FF6600"/>
</svg>
